<mxfile host="app.diagrams.net" agent="Mozilla/5.0 (Windows NT 10.0; Win64; x64) AppleWebKit/537.36 (KHTML, like Gecko) Chrome/127.0.0.0 Safari/537.36" version="24.7.7">
  <diagram name="Сторінка-1" id="lQlykuT76nLz_-_hPbVb">
    <mxGraphModel dx="2019" dy="1050" grid="0" gridSize="10" guides="1" tooltips="1" connect="1" arrows="1" fold="1" page="1" pageScale="1" pageWidth="827" pageHeight="1169" math="0" shadow="0">
      <root>
        <mxCell id="0" />
        <mxCell id="1" parent="0" />
        <mxCell id="YlhcBeEanbGtURB7-T1P-1" value="ESP32" style="rounded=0;whiteSpace=wrap;html=1;fillColor=#d0cee2;strokeColor=#56517e;" parent="1" vertex="1">
          <mxGeometry x="499" y="220" width="250" height="460" as="geometry" />
        </mxCell>
        <mxCell id="YlhcBeEanbGtURB7-T1P-2" value="GPS&amp;nbsp;&lt;br&gt;&amp;nbsp;GY-GPS6MV2&amp;nbsp;&lt;br&gt;module" style="rounded=1;whiteSpace=wrap;html=1;fillColor=#b1ddf0;strokeColor=#10739e;" parent="1" vertex="1">
          <mxGeometry x="949" y="230" width="120" height="90" as="geometry" />
        </mxCell>
        <mxCell id="YlhcBeEanbGtURB7-T1P-3" value="GSM&amp;nbsp;&lt;br&gt;SIM800L module" style="rounded=1;whiteSpace=wrap;html=1;fillColor=#fa6800;strokeColor=#C73500;fontColor=#000000;" parent="1" vertex="1">
          <mxGeometry x="949" y="350" width="120" height="90" as="geometry" />
        </mxCell>
        <mxCell id="YlhcBeEanbGtURB7-T1P-4" value="MicroSD card" style="rounded=1;whiteSpace=wrap;html=1;fillColor=#f8cecc;strokeColor=#b85450;" parent="1" vertex="1">
          <mxGeometry x="949" y="500" width="120" height="90" as="geometry" />
        </mxCell>
        <mxCell id="YlhcBeEanbGtURB7-T1P-5" value="BME280" style="rounded=1;whiteSpace=wrap;html=1;fillColor=#a0522d;fontColor=#ffffff;strokeColor=#6D1F00;" parent="1" vertex="1">
          <mxGeometry x="739" y="820" width="90" height="70" as="geometry" />
        </mxCell>
        <mxCell id="YlhcBeEanbGtURB7-T1P-6" value="MPU5060" style="rounded=1;whiteSpace=wrap;html=1;fillColor=#a0522d;fontColor=#ffffff;strokeColor=#6D1F00;" parent="1" vertex="1">
          <mxGeometry x="739" y="890" width="90" height="70" as="geometry" />
        </mxCell>
        <mxCell id="YlhcBeEanbGtURB7-T1P-7" value="LEDs&amp;nbsp;&lt;br&gt;Red, Green, Blue" style="rounded=1;whiteSpace=wrap;html=1;fillColor=#6d8764;fontColor=#ffffff;strokeColor=#3A5431;" parent="1" vertex="1">
          <mxGeometry x="484" y="870" width="90" height="70" as="geometry" />
        </mxCell>
        <mxCell id="YlhcBeEanbGtURB7-T1P-8" value="USB" style="rounded=1;whiteSpace=wrap;html=1;fillColor=#76608a;fontColor=#ffffff;strokeColor=#432D57;" parent="1" vertex="1">
          <mxGeometry x="574" y="50" width="100" height="70" as="geometry" />
        </mxCell>
        <mxCell id="YlhcBeEanbGtURB7-T1P-25" value="" style="edgeStyle=orthogonalEdgeStyle;rounded=0;orthogonalLoop=1;jettySize=auto;html=1;" parent="1" source="YlhcBeEanbGtURB7-T1P-9" target="YlhcBeEanbGtURB7-T1P-24" edge="1">
          <mxGeometry relative="1" as="geometry" />
        </mxCell>
        <mxCell id="YlhcBeEanbGtURB7-T1P-50" value="" style="edgeStyle=orthogonalEdgeStyle;rounded=0;orthogonalLoop=1;jettySize=auto;html=1;" parent="1" source="YlhcBeEanbGtURB7-T1P-9" target="YlhcBeEanbGtURB7-T1P-48" edge="1">
          <mxGeometry relative="1" as="geometry" />
        </mxCell>
        <mxCell id="YlhcBeEanbGtURB7-T1P-9" value="Battery" style="rounded=1;whiteSpace=wrap;html=1;fillColor=#008a00;strokeColor=#005700;fontColor=#ffffff;" parent="1" vertex="1">
          <mxGeometry x="59" y="270" width="190" height="50" as="geometry" />
        </mxCell>
        <mxCell id="YlhcBeEanbGtURB7-T1P-10" value="Charger/protection" style="rounded=1;whiteSpace=wrap;html=1;fillColor=#76608a;fontColor=#ffffff;strokeColor=#432D57;" parent="1" vertex="1">
          <mxGeometry x="89" y="140" width="130" height="70" as="geometry" />
        </mxCell>
        <mxCell id="YlhcBeEanbGtURB7-T1P-11" value="DC/DC Step up (4V)&lt;br&gt;(For GSM module)" style="rounded=1;whiteSpace=wrap;html=1;fillColor=#d80073;fontColor=#ffffff;strokeColor=#A50040;" parent="1" vertex="1">
          <mxGeometry x="9" y="535" width="130" height="70" as="geometry" />
        </mxCell>
        <mxCell id="YlhcBeEanbGtURB7-T1P-12" value="linear voltage stabilizer 3.3 V (for all)" style="rounded=1;whiteSpace=wrap;html=1;fillColor=#d80073;fontColor=#ffffff;strokeColor=#A50040;" parent="1" vertex="1">
          <mxGeometry x="169" y="535" width="130" height="70" as="geometry" />
        </mxCell>
        <mxCell id="YlhcBeEanbGtURB7-T1P-14" value="Firmware and terminal" style="text;html=1;align=center;verticalAlign=middle;resizable=0;points=[];autosize=1;strokeColor=none;fillColor=none;" parent="1" vertex="1">
          <mxGeometry x="469" y="150" width="140" height="30" as="geometry" />
        </mxCell>
        <mxCell id="YlhcBeEanbGtURB7-T1P-16" value="" style="shape=flexArrow;endArrow=classic;startArrow=classic;html=1;rounded=0;entryX=0.5;entryY=1;entryDx=0;entryDy=0;exitX=0.5;exitY=0;exitDx=0;exitDy=0;" parent="1" source="YlhcBeEanbGtURB7-T1P-1" target="YlhcBeEanbGtURB7-T1P-8" edge="1">
          <mxGeometry width="100" height="100" relative="1" as="geometry">
            <mxPoint x="449" y="320" as="sourcePoint" />
            <mxPoint x="549" y="220" as="targetPoint" />
          </mxGeometry>
        </mxCell>
        <mxCell id="YlhcBeEanbGtURB7-T1P-17" value="" style="endArrow=classic;html=1;rounded=0;entryX=0.5;entryY=0;entryDx=0;entryDy=0;" parent="1" target="YlhcBeEanbGtURB7-T1P-10" edge="1">
          <mxGeometry width="50" height="50" relative="1" as="geometry">
            <mxPoint x="399" y="90" as="sourcePoint" />
            <mxPoint x="409" y="250" as="targetPoint" />
            <Array as="points">
              <mxPoint x="154" y="90" />
            </Array>
          </mxGeometry>
        </mxCell>
        <mxCell id="YlhcBeEanbGtURB7-T1P-18" value="5V" style="text;html=1;align=center;verticalAlign=middle;resizable=0;points=[];autosize=1;strokeColor=none;fillColor=none;" parent="1" vertex="1">
          <mxGeometry x="359" y="60" width="40" height="30" as="geometry" />
        </mxCell>
        <mxCell id="YlhcBeEanbGtURB7-T1P-19" value="" style="endArrow=classic;html=1;rounded=0;exitX=0.5;exitY=1;exitDx=0;exitDy=0;entryX=0.5;entryY=0;entryDx=0;entryDy=0;" parent="1" source="YlhcBeEanbGtURB7-T1P-10" target="YlhcBeEanbGtURB7-T1P-9" edge="1">
          <mxGeometry width="50" height="50" relative="1" as="geometry">
            <mxPoint x="339" y="340" as="sourcePoint" />
            <mxPoint x="389" y="290" as="targetPoint" />
          </mxGeometry>
        </mxCell>
        <mxCell id="YlhcBeEanbGtURB7-T1P-22" value="" style="endArrow=classic;html=1;rounded=0;exitX=-0.043;exitY=0.567;exitDx=0;exitDy=0;entryX=0;entryY=0.5;entryDx=0;entryDy=0;exitPerimeter=0;" parent="1" source="YlhcBeEanbGtURB7-T1P-8" target="YlhcBeEanbGtURB7-T1P-24" edge="1">
          <mxGeometry width="50" height="50" relative="1" as="geometry">
            <mxPoint x="404" y="90" as="sourcePoint" />
            <mxPoint x="29" y="375" as="targetPoint" />
            <Array as="points">
              <mxPoint x="29" y="90" />
              <mxPoint x="29" y="415" />
            </Array>
          </mxGeometry>
        </mxCell>
        <mxCell id="YlhcBeEanbGtURB7-T1P-24" value="Power switcher" style="rounded=1;whiteSpace=wrap;html=1;fillColor=#d80073;fontColor=#ffffff;strokeColor=#A50040;" parent="1" vertex="1">
          <mxGeometry x="89" y="380" width="130" height="70" as="geometry" />
        </mxCell>
        <mxCell id="YlhcBeEanbGtURB7-T1P-26" value="" style="endArrow=classic;html=1;rounded=0;exitX=0.5;exitY=1;exitDx=0;exitDy=0;entryX=0.463;entryY=0.021;entryDx=0;entryDy=0;entryPerimeter=0;" parent="1" source="YlhcBeEanbGtURB7-T1P-24" target="YlhcBeEanbGtURB7-T1P-12" edge="1">
          <mxGeometry width="50" height="50" relative="1" as="geometry">
            <mxPoint x="309" y="420" as="sourcePoint" />
            <mxPoint x="359" y="370" as="targetPoint" />
          </mxGeometry>
        </mxCell>
        <mxCell id="YlhcBeEanbGtURB7-T1P-27" value="" style="endArrow=classic;html=1;rounded=0;exitX=0.5;exitY=1;exitDx=0;exitDy=0;entryX=0.5;entryY=0;entryDx=0;entryDy=0;" parent="1" source="YlhcBeEanbGtURB7-T1P-24" target="YlhcBeEanbGtURB7-T1P-11" edge="1">
          <mxGeometry width="50" height="50" relative="1" as="geometry">
            <mxPoint x="309" y="420" as="sourcePoint" />
            <mxPoint x="359" y="370" as="targetPoint" />
          </mxGeometry>
        </mxCell>
        <mxCell id="YlhcBeEanbGtURB7-T1P-35" value="" style="shape=flexArrow;endArrow=classic;startArrow=classic;html=1;rounded=0;entryX=0;entryY=0.5;entryDx=0;entryDy=0;exitX=1.017;exitY=0.117;exitDx=0;exitDy=0;exitPerimeter=0;" parent="1" source="YlhcBeEanbGtURB7-T1P-1" target="YlhcBeEanbGtURB7-T1P-2" edge="1">
          <mxGeometry width="100" height="100" relative="1" as="geometry">
            <mxPoint x="859" y="520" as="sourcePoint" />
            <mxPoint x="879" y="274.9949999999999" as="targetPoint" />
          </mxGeometry>
        </mxCell>
        <mxCell id="YlhcBeEanbGtURB7-T1P-36" value="UART" style="text;html=1;align=center;verticalAlign=middle;resizable=0;points=[];autosize=1;strokeColor=none;fillColor=none;" parent="1" vertex="1">
          <mxGeometry x="789" y="230" width="60" height="30" as="geometry" />
        </mxCell>
        <mxCell id="YlhcBeEanbGtURB7-T1P-37" value="" style="shape=flexArrow;endArrow=classic;startArrow=classic;html=1;rounded=0;exitX=1.017;exitY=0.117;exitDx=0;exitDy=0;exitPerimeter=0;" parent="1" target="YlhcBeEanbGtURB7-T1P-3" edge="1">
          <mxGeometry width="100" height="100" relative="1" as="geometry">
            <mxPoint x="749" y="394.5" as="sourcePoint" />
            <mxPoint x="875" y="395.5" as="targetPoint" />
          </mxGeometry>
        </mxCell>
        <mxCell id="YlhcBeEanbGtURB7-T1P-38" value="UART" style="text;html=1;align=center;verticalAlign=middle;resizable=0;points=[];autosize=1;strokeColor=none;fillColor=none;" parent="1" vertex="1">
          <mxGeometry x="789" y="360" width="60" height="30" as="geometry" />
        </mxCell>
        <mxCell id="YlhcBeEanbGtURB7-T1P-39" value="ON/OFF Switcher" style="shape=or;whiteSpace=wrap;html=1;" parent="1" vertex="1">
          <mxGeometry x="1079" y="251.88" width="110" height="46.25" as="geometry" />
        </mxCell>
        <mxCell id="YlhcBeEanbGtURB7-T1P-40" value="ON/OFF Switcher" style="shape=or;whiteSpace=wrap;html=1;" parent="1" vertex="1">
          <mxGeometry x="1079" y="371.88" width="110" height="46.25" as="geometry" />
        </mxCell>
        <mxCell id="YlhcBeEanbGtURB7-T1P-41" value="" style="shape=flexArrow;endArrow=classic;startArrow=classic;html=1;rounded=0;exitX=1.017;exitY=0.117;exitDx=0;exitDy=0;exitPerimeter=0;" parent="1" edge="1">
          <mxGeometry width="100" height="100" relative="1" as="geometry">
            <mxPoint x="749" y="550" as="sourcePoint" />
            <mxPoint x="949" y="550.5" as="targetPoint" />
          </mxGeometry>
        </mxCell>
        <mxCell id="YlhcBeEanbGtURB7-T1P-42" value="SPI" style="text;html=1;align=center;verticalAlign=middle;resizable=0;points=[];autosize=1;strokeColor=none;fillColor=none;" parent="1" vertex="1">
          <mxGeometry x="829" y="510" width="40" height="30" as="geometry" />
        </mxCell>
        <mxCell id="YlhcBeEanbGtURB7-T1P-43" value="" style="shape=flexArrow;endArrow=classic;startArrow=classic;html=1;rounded=0;exitX=0.5;exitY=0;exitDx=0;exitDy=0;entryX=0.598;entryY=1.006;entryDx=0;entryDy=0;entryPerimeter=0;" parent="1" source="YlhcBeEanbGtURB7-T1P-5" target="YlhcBeEanbGtURB7-T1P-1" edge="1">
          <mxGeometry width="100" height="100" relative="1" as="geometry">
            <mxPoint x="619" y="650" as="sourcePoint" />
            <mxPoint x="719" y="550" as="targetPoint" />
          </mxGeometry>
        </mxCell>
        <mxCell id="YlhcBeEanbGtURB7-T1P-44" value="I2C" style="text;html=1;align=center;verticalAlign=middle;resizable=0;points=[];autosize=1;strokeColor=none;fillColor=none;" parent="1" vertex="1">
          <mxGeometry x="729" y="730" width="40" height="30" as="geometry" />
        </mxCell>
        <mxCell id="YlhcBeEanbGtURB7-T1P-45" value="" style="shape=flexArrow;endArrow=classic;html=1;rounded=0;entryX=0.5;entryY=0;entryDx=0;entryDy=0;exitX=0.129;exitY=1.006;exitDx=0;exitDy=0;exitPerimeter=0;" parent="1" source="YlhcBeEanbGtURB7-T1P-1" target="YlhcBeEanbGtURB7-T1P-7" edge="1">
          <mxGeometry width="50" height="50" relative="1" as="geometry">
            <mxPoint x="509" y="790" as="sourcePoint" />
            <mxPoint x="679" y="650" as="targetPoint" />
          </mxGeometry>
        </mxCell>
        <mxCell id="YlhcBeEanbGtURB7-T1P-46" value="GPIOs" style="text;html=1;align=center;verticalAlign=middle;resizable=0;points=[];autosize=1;strokeColor=none;fillColor=none;" parent="1" vertex="1">
          <mxGeometry x="459" y="770" width="60" height="30" as="geometry" />
        </mxCell>
        <mxCell id="YlhcBeEanbGtURB7-T1P-47" value="" style="endArrow=classic;html=1;rounded=0;entryX=-0.003;entryY=0.225;entryDx=0;entryDy=0;entryPerimeter=0;exitX=1;exitY=0.5;exitDx=0;exitDy=0;" parent="1" source="YlhcBeEanbGtURB7-T1P-48" target="YlhcBeEanbGtURB7-T1P-1" edge="1">
          <mxGeometry width="50" height="50" relative="1" as="geometry">
            <mxPoint x="429" y="320" as="sourcePoint" />
            <mxPoint x="649" y="400" as="targetPoint" />
          </mxGeometry>
        </mxCell>
        <mxCell id="YlhcBeEanbGtURB7-T1P-48" value="voltage divider&lt;br&gt;(get battery voltage)" style="rounded=1;whiteSpace=wrap;html=1;fillColor=#ffcc99;strokeColor=#36393d;" parent="1" vertex="1">
          <mxGeometry x="289" y="270" width="130" height="50" as="geometry" />
        </mxCell>
        <mxCell id="YlhcBeEanbGtURB7-T1P-49" value="ADC" style="text;html=1;align=center;verticalAlign=middle;resizable=0;points=[];autosize=1;strokeColor=none;fillColor=none;" parent="1" vertex="1">
          <mxGeometry x="434" y="278" width="50" height="30" as="geometry" />
        </mxCell>
        <mxCell id="IAE02krrpLUfDQyFtPKX-7" value="" style="edgeStyle=orthogonalEdgeStyle;rounded=0;orthogonalLoop=1;jettySize=auto;html=1;" edge="1" parent="1" source="7OEHtTSeNIAFF6rPtCQs-1" target="IAE02krrpLUfDQyFtPKX-1">
          <mxGeometry relative="1" as="geometry" />
        </mxCell>
        <mxCell id="7OEHtTSeNIAFF6rPtCQs-1" value="Start" style="rounded=1;whiteSpace=wrap;html=1;" parent="1" vertex="1">
          <mxGeometry x="1808" y="305.88" width="128" height="54.12" as="geometry" />
        </mxCell>
        <mxCell id="IAE02krrpLUfDQyFtPKX-8" value="" style="edgeStyle=orthogonalEdgeStyle;rounded=0;orthogonalLoop=1;jettySize=auto;html=1;" edge="1" parent="1" source="IAE02krrpLUfDQyFtPKX-1" target="IAE02krrpLUfDQyFtPKX-5">
          <mxGeometry relative="1" as="geometry" />
        </mxCell>
        <mxCell id="IAE02krrpLUfDQyFtPKX-1" value="Init GSM" style="rounded=1;whiteSpace=wrap;html=1;" vertex="1" parent="1">
          <mxGeometry x="1808" y="407" width="128" height="54.12" as="geometry" />
        </mxCell>
        <mxCell id="IAE02krrpLUfDQyFtPKX-12" value="" style="edgeStyle=orthogonalEdgeStyle;rounded=0;orthogonalLoop=1;jettySize=auto;html=1;" edge="1" parent="1" source="IAE02krrpLUfDQyFtPKX-5" target="IAE02krrpLUfDQyFtPKX-9">
          <mxGeometry relative="1" as="geometry" />
        </mxCell>
        <mxCell id="IAE02krrpLUfDQyFtPKX-5" value="Sleep (Max power saving)" style="rounded=1;whiteSpace=wrap;html=1;" vertex="1" parent="1">
          <mxGeometry x="1808" y="500" width="128" height="54.12" as="geometry" />
        </mxCell>
        <mxCell id="IAE02krrpLUfDQyFtPKX-13" style="edgeStyle=orthogonalEdgeStyle;rounded=0;orthogonalLoop=1;jettySize=auto;html=1;" edge="1" parent="1" source="IAE02krrpLUfDQyFtPKX-9">
          <mxGeometry relative="1" as="geometry">
            <mxPoint x="1806" y="527" as="targetPoint" />
            <Array as="points">
              <mxPoint x="1665" y="650" />
              <mxPoint x="1665" y="527" />
            </Array>
          </mxGeometry>
        </mxCell>
        <mxCell id="IAE02krrpLUfDQyFtPKX-36" value="" style="edgeStyle=orthogonalEdgeStyle;rounded=0;orthogonalLoop=1;jettySize=auto;html=1;" edge="1" parent="1" source="IAE02krrpLUfDQyFtPKX-9" target="IAE02krrpLUfDQyFtPKX-34">
          <mxGeometry relative="1" as="geometry" />
        </mxCell>
        <mxCell id="IAE02krrpLUfDQyFtPKX-9" value="SMS commands from GSM" style="rhombus;whiteSpace=wrap;html=1;" vertex="1" parent="1">
          <mxGeometry x="1780" y="597" width="184" height="106" as="geometry" />
        </mxCell>
        <mxCell id="IAE02krrpLUfDQyFtPKX-10" value="Yes" style="text;html=1;align=center;verticalAlign=middle;resizable=0;points=[];autosize=1;strokeColor=none;fillColor=none;" vertex="1" parent="1">
          <mxGeometry x="1959" y="616" width="38" height="26" as="geometry" />
        </mxCell>
        <mxCell id="IAE02krrpLUfDQyFtPKX-11" value="No" style="text;html=1;align=center;verticalAlign=middle;resizable=0;points=[];autosize=1;strokeColor=none;fillColor=none;" vertex="1" parent="1">
          <mxGeometry x="1753" y="614" width="33" height="26" as="geometry" />
        </mxCell>
        <mxCell id="IAE02krrpLUfDQyFtPKX-46" value="" style="edgeStyle=orthogonalEdgeStyle;rounded=0;orthogonalLoop=1;jettySize=auto;html=1;" edge="1" parent="1" source="IAE02krrpLUfDQyFtPKX-19" target="IAE02krrpLUfDQyFtPKX-45">
          <mxGeometry relative="1" as="geometry" />
        </mxCell>
        <mxCell id="IAE02krrpLUfDQyFtPKX-19" value="Command: Reset module" style="rounded=1;whiteSpace=wrap;html=1;" vertex="1" parent="1">
          <mxGeometry x="1683" y="1457.32" width="152" height="58" as="geometry" />
        </mxCell>
        <mxCell id="IAE02krrpLUfDQyFtPKX-56" value="" style="edgeStyle=orthogonalEdgeStyle;rounded=0;orthogonalLoop=1;jettySize=auto;html=1;" edge="1" parent="1" source="IAE02krrpLUfDQyFtPKX-20" target="IAE02krrpLUfDQyFtPKX-48">
          <mxGeometry relative="1" as="geometry" />
        </mxCell>
        <mxCell id="IAE02krrpLUfDQyFtPKX-20" value="Command: Get bttery status" style="rounded=1;whiteSpace=wrap;html=1;" vertex="1" parent="1">
          <mxGeometry x="1680" y="1692.26" width="152" height="58" as="geometry" />
        </mxCell>
        <mxCell id="IAE02krrpLUfDQyFtPKX-27" value="Parametr: ON/OFF" style="rhombus;whiteSpace=wrap;html=1;" vertex="1" parent="1">
          <mxGeometry x="2844" y="676.44" width="184" height="106" as="geometry" />
        </mxCell>
        <mxCell id="IAE02krrpLUfDQyFtPKX-28" value="" style="endArrow=classic;html=1;rounded=0;exitX=1;exitY=0.5;exitDx=0;exitDy=0;entryX=0.5;entryY=0;entryDx=0;entryDy=0;" edge="1" parent="1" source="IAE02krrpLUfDQyFtPKX-27" target="IAE02krrpLUfDQyFtPKX-29">
          <mxGeometry width="50" height="50" relative="1" as="geometry">
            <mxPoint x="3093" y="738.44" as="sourcePoint" />
            <mxPoint x="3155" y="779.44" as="targetPoint" />
            <Array as="points">
              <mxPoint x="3137" y="729" />
            </Array>
          </mxGeometry>
        </mxCell>
        <mxCell id="IAE02krrpLUfDQyFtPKX-29" value="Deinit GPS, Micro SD Card, BME280, ADC" style="rounded=1;whiteSpace=wrap;html=1;" vertex="1" parent="1">
          <mxGeometry x="3074" y="782.44" width="128" height="54.12" as="geometry" />
        </mxCell>
        <mxCell id="IAE02krrpLUfDQyFtPKX-31" value="OFF" style="text;html=1;align=center;verticalAlign=middle;resizable=0;points=[];autosize=1;strokeColor=none;fillColor=none;" vertex="1" parent="1">
          <mxGeometry x="3021" y="697.5600000000001" width="42" height="26" as="geometry" />
        </mxCell>
        <mxCell id="IAE02krrpLUfDQyFtPKX-34" value="Command:&amp;nbsp;LOG" style="rounded=1;whiteSpace=wrap;html=1;" vertex="1" parent="1">
          <mxGeometry x="2041" y="622.94" width="128" height="54.12" as="geometry" />
        </mxCell>
        <mxCell id="IAE02krrpLUfDQyFtPKX-35" value="" style="endArrow=classic;html=1;rounded=0;entryX=0.5;entryY=0;entryDx=0;entryDy=0;exitX=1;exitY=0.5;exitDx=0;exitDy=0;" edge="1" parent="1" source="IAE02krrpLUfDQyFtPKX-34" target="IAE02krrpLUfDQyFtPKX-27">
          <mxGeometry width="50" height="50" relative="1" as="geometry">
            <mxPoint x="2188" y="946" as="sourcePoint" />
            <mxPoint x="2238" y="896" as="targetPoint" />
            <Array as="points">
              <mxPoint x="2508" y="653" />
              <mxPoint x="2663" y="653" />
              <mxPoint x="2936" y="653" />
            </Array>
          </mxGeometry>
        </mxCell>
        <mxCell id="IAE02krrpLUfDQyFtPKX-37" value="Command: WiFi" style="rounded=1;whiteSpace=wrap;html=1;" vertex="1" parent="1">
          <mxGeometry x="2046" y="780" width="128" height="54.12" as="geometry" />
        </mxCell>
        <mxCell id="IAE02krrpLUfDQyFtPKX-38" value="Parametr: ON/OFF" style="rhombus;whiteSpace=wrap;html=1;" vertex="1" parent="1">
          <mxGeometry x="2289" y="842.2600000000002" width="184" height="106" as="geometry" />
        </mxCell>
        <mxCell id="IAE02krrpLUfDQyFtPKX-39" value="Yes" style="text;html=1;align=center;verticalAlign=middle;resizable=0;points=[];autosize=1;strokeColor=none;fillColor=none;" vertex="1" parent="1">
          <mxGeometry x="2468" y="863.3800000000001" width="38" height="26" as="geometry" />
        </mxCell>
        <mxCell id="IAE02krrpLUfDQyFtPKX-40" value="No" style="text;html=1;align=center;verticalAlign=middle;resizable=0;points=[];autosize=1;strokeColor=none;fillColor=none;" vertex="1" parent="1">
          <mxGeometry x="2256" y="856.3800000000001" width="33" height="26" as="geometry" />
        </mxCell>
        <mxCell id="IAE02krrpLUfDQyFtPKX-41" value="" style="endArrow=classic;html=1;rounded=0;exitX=1.012;exitY=0.463;exitDx=0;exitDy=0;entryX=0.5;entryY=0;entryDx=0;entryDy=0;exitPerimeter=0;" edge="1" parent="1" source="IAE02krrpLUfDQyFtPKX-37" target="IAE02krrpLUfDQyFtPKX-38">
          <mxGeometry width="50" height="50" relative="1" as="geometry">
            <mxPoint x="2221" y="802" as="sourcePoint" />
            <mxPoint x="2383" y="805.3800000000001" as="targetPoint" />
            <Array as="points">
              <mxPoint x="2381" y="806" />
            </Array>
          </mxGeometry>
        </mxCell>
        <mxCell id="IAE02krrpLUfDQyFtPKX-42" value="Turn OFF wifi&amp;nbsp;" style="rounded=1;whiteSpace=wrap;html=1;" vertex="1" parent="1">
          <mxGeometry x="2205" y="967.5799999999999" width="128" height="54.12" as="geometry" />
        </mxCell>
        <mxCell id="IAE02krrpLUfDQyFtPKX-57" value="" style="edgeStyle=orthogonalEdgeStyle;rounded=0;orthogonalLoop=1;jettySize=auto;html=1;" edge="1" parent="1" source="IAE02krrpLUfDQyFtPKX-43" target="IAE02krrpLUfDQyFtPKX-44">
          <mxGeometry relative="1" as="geometry" />
        </mxCell>
        <mxCell id="IAE02krrpLUfDQyFtPKX-43" value="Init and run WiFi server" style="rounded=1;whiteSpace=wrap;html=1;" vertex="1" parent="1">
          <mxGeometry x="2473" y="972.26" width="136" height="54" as="geometry" />
        </mxCell>
        <mxCell id="IAE02krrpLUfDQyFtPKX-44" value="Load page (interface)" style="rounded=1;whiteSpace=wrap;html=1;" vertex="1" parent="1">
          <mxGeometry x="2473" y="1064.82" width="136" height="54" as="geometry" />
        </mxCell>
        <mxCell id="IAE02krrpLUfDQyFtPKX-45" value="Reset GSM module and ESP32" style="rounded=1;whiteSpace=wrap;html=1;" vertex="1" parent="1">
          <mxGeometry x="1925" y="1459.32" width="136" height="54" as="geometry" />
        </mxCell>
        <mxCell id="IAE02krrpLUfDQyFtPKX-53" value="" style="edgeStyle=orthogonalEdgeStyle;rounded=0;orthogonalLoop=1;jettySize=auto;html=1;" edge="1" parent="1" source="IAE02krrpLUfDQyFtPKX-48" target="IAE02krrpLUfDQyFtPKX-49">
          <mxGeometry relative="1" as="geometry" />
        </mxCell>
        <mxCell id="IAE02krrpLUfDQyFtPKX-48" value="Init ADC (battery voltage)" style="rounded=1;whiteSpace=wrap;html=1;" vertex="1" parent="1">
          <mxGeometry x="1925" y="1694.2" width="128" height="54.12" as="geometry" />
        </mxCell>
        <mxCell id="IAE02krrpLUfDQyFtPKX-54" value="" style="edgeStyle=orthogonalEdgeStyle;rounded=0;orthogonalLoop=1;jettySize=auto;html=1;" edge="1" parent="1" source="IAE02krrpLUfDQyFtPKX-49" target="IAE02krrpLUfDQyFtPKX-50">
          <mxGeometry relative="1" as="geometry" />
        </mxCell>
        <mxCell id="IAE02krrpLUfDQyFtPKX-49" value="Meassure battery voltage" style="rounded=1;whiteSpace=wrap;html=1;" vertex="1" parent="1">
          <mxGeometry x="1925" y="1800.32" width="128" height="54.12" as="geometry" />
        </mxCell>
        <mxCell id="IAE02krrpLUfDQyFtPKX-50" value="Send SMS back" style="rounded=1;whiteSpace=wrap;html=1;" vertex="1" parent="1">
          <mxGeometry x="1925" y="1906.32" width="128" height="54.12" as="geometry" />
        </mxCell>
        <mxCell id="IAE02krrpLUfDQyFtPKX-55" value="" style="edgeStyle=orthogonalEdgeStyle;rounded=0;orthogonalLoop=1;jettySize=auto;html=1;" edge="1" parent="1" source="IAE02krrpLUfDQyFtPKX-51" target="IAE02krrpLUfDQyFtPKX-52">
          <mxGeometry relative="1" as="geometry" />
        </mxCell>
        <mxCell id="IAE02krrpLUfDQyFtPKX-51" value="Input call from mu number" style="rounded=1;whiteSpace=wrap;html=1;" vertex="1" parent="1">
          <mxGeometry x="1683" y="2051.32" width="152" height="58" as="geometry" />
        </mxCell>
        <mxCell id="IAE02krrpLUfDQyFtPKX-52" value="pick up the phone" style="rounded=1;whiteSpace=wrap;html=1;" vertex="1" parent="1">
          <mxGeometry x="1925" y="2053.26" width="128" height="54.12" as="geometry" />
        </mxCell>
        <mxCell id="IAE02krrpLUfDQyFtPKX-68" value="" style="endArrow=classic;html=1;rounded=0;exitX=0.002;exitY=0.486;exitDx=0;exitDy=0;exitPerimeter=0;entryX=0.5;entryY=0;entryDx=0;entryDy=0;" edge="1" parent="1" source="IAE02krrpLUfDQyFtPKX-82" target="IAE02krrpLUfDQyFtPKX-27">
          <mxGeometry width="50" height="50" relative="1" as="geometry">
            <mxPoint x="2688" y="1331" as="sourcePoint" />
            <mxPoint x="2937" y="641" as="targetPoint" />
            <Array as="points">
              <mxPoint x="2686" y="1329" />
              <mxPoint x="2684" y="1415" />
              <mxPoint x="3025" y="1417" />
              <mxPoint x="3298" y="1417" />
              <mxPoint x="3338" y="1417" />
              <mxPoint x="3336" y="653" />
              <mxPoint x="2935" y="653" />
            </Array>
          </mxGeometry>
        </mxCell>
        <mxCell id="IAE02krrpLUfDQyFtPKX-70" value="ON" style="text;html=1;align=center;verticalAlign=middle;resizable=0;points=[];autosize=1;strokeColor=none;fillColor=none;" vertex="1" parent="1">
          <mxGeometry x="2801" y="690.0000000000001" width="36" height="26" as="geometry" />
        </mxCell>
        <mxCell id="IAE02krrpLUfDQyFtPKX-71" value="" style="edgeStyle=orthogonalEdgeStyle;rounded=0;orthogonalLoop=1;jettySize=auto;html=1;" edge="1" parent="1" source="IAE02krrpLUfDQyFtPKX-72" target="IAE02krrpLUfDQyFtPKX-75">
          <mxGeometry relative="1" as="geometry" />
        </mxCell>
        <mxCell id="IAE02krrpLUfDQyFtPKX-72" value="Init GPS" style="rounded=1;whiteSpace=wrap;html=1;" vertex="1" parent="1">
          <mxGeometry x="2732" y="782.44" width="128" height="54.12" as="geometry" />
        </mxCell>
        <mxCell id="IAE02krrpLUfDQyFtPKX-73" value="Init Micro SD Card" style="rounded=1;whiteSpace=wrap;html=1;" vertex="1" parent="1">
          <mxGeometry x="2732" y="862.44" width="128" height="54.12" as="geometry" />
        </mxCell>
        <mxCell id="IAE02krrpLUfDQyFtPKX-74" value="" style="edgeStyle=orthogonalEdgeStyle;rounded=0;orthogonalLoop=1;jettySize=auto;html=1;" edge="1" parent="1" source="IAE02krrpLUfDQyFtPKX-75" target="IAE02krrpLUfDQyFtPKX-77">
          <mxGeometry relative="1" as="geometry" />
        </mxCell>
        <mxCell id="IAE02krrpLUfDQyFtPKX-75" value="Init BME280" style="rounded=1;whiteSpace=wrap;html=1;" vertex="1" parent="1">
          <mxGeometry x="2732" y="940.3800000000001" width="128" height="54.12" as="geometry" />
        </mxCell>
        <mxCell id="IAE02krrpLUfDQyFtPKX-76" value="" style="edgeStyle=orthogonalEdgeStyle;rounded=0;orthogonalLoop=1;jettySize=auto;html=1;" edge="1" parent="1" source="IAE02krrpLUfDQyFtPKX-77" target="IAE02krrpLUfDQyFtPKX-81">
          <mxGeometry relative="1" as="geometry" />
        </mxCell>
        <mxCell id="IAE02krrpLUfDQyFtPKX-77" value="Init ADC (battery voltage)" style="rounded=1;whiteSpace=wrap;html=1;" vertex="1" parent="1">
          <mxGeometry x="2732" y="1020.44" width="128" height="54.12" as="geometry" />
        </mxCell>
        <mxCell id="IAE02krrpLUfDQyFtPKX-78" value="" style="edgeStyle=orthogonalEdgeStyle;rounded=0;orthogonalLoop=1;jettySize=auto;html=1;" edge="1" parent="1" source="IAE02krrpLUfDQyFtPKX-79" target="IAE02krrpLUfDQyFtPKX-82">
          <mxGeometry relative="1" as="geometry" />
        </mxCell>
        <mxCell id="IAE02krrpLUfDQyFtPKX-79" value="Log data on file Micro SD Card" style="rounded=1;whiteSpace=wrap;html=1;" vertex="1" parent="1">
          <mxGeometry x="2732" y="1192" width="128" height="54.12" as="geometry" />
        </mxCell>
        <mxCell id="IAE02krrpLUfDQyFtPKX-80" value="" style="edgeStyle=orthogonalEdgeStyle;rounded=0;orthogonalLoop=1;jettySize=auto;html=1;" edge="1" parent="1" source="IAE02krrpLUfDQyFtPKX-81" target="IAE02krrpLUfDQyFtPKX-79">
          <mxGeometry relative="1" as="geometry" />
        </mxCell>
        <mxCell id="IAE02krrpLUfDQyFtPKX-81" value="Convert GPS data in Google Earth format" style="rounded=1;whiteSpace=wrap;html=1;" vertex="1" parent="1">
          <mxGeometry x="2732" y="1102.44" width="128" height="54.12" as="geometry" />
        </mxCell>
        <mxCell id="IAE02krrpLUfDQyFtPKX-82" value="Parametr: ON" style="rhombus;whiteSpace=wrap;html=1;" vertex="1" parent="1">
          <mxGeometry x="2704" y="1277" width="184" height="106" as="geometry" />
        </mxCell>
        <mxCell id="IAE02krrpLUfDQyFtPKX-83" value="Yes" style="text;html=1;align=center;verticalAlign=middle;resizable=0;points=[];autosize=1;strokeColor=none;fillColor=none;" vertex="1" parent="1">
          <mxGeometry x="2867" y="1292" width="38" height="26" as="geometry" />
        </mxCell>
        <mxCell id="IAE02krrpLUfDQyFtPKX-84" value="" style="endArrow=classic;html=1;rounded=0;exitX=1;exitY=0.5;exitDx=0;exitDy=0;entryX=0.99;entryY=0.43;entryDx=0;entryDy=0;entryPerimeter=0;" edge="1" parent="1" source="IAE02krrpLUfDQyFtPKX-82" target="IAE02krrpLUfDQyFtPKX-81">
          <mxGeometry width="50" height="50" relative="1" as="geometry">
            <mxPoint x="3117" y="1175" as="sourcePoint" />
            <mxPoint x="2928" y="1067" as="targetPoint" />
            <Array as="points">
              <mxPoint x="2928" y="1330" />
              <mxPoint x="2928" y="1126" />
            </Array>
          </mxGeometry>
        </mxCell>
        <mxCell id="IAE02krrpLUfDQyFtPKX-85" value="" style="endArrow=classic;html=1;rounded=0;entryX=0.5;entryY=0;entryDx=0;entryDy=0;exitX=0;exitY=0.5;exitDx=0;exitDy=0;" edge="1" parent="1" source="IAE02krrpLUfDQyFtPKX-27" target="IAE02krrpLUfDQyFtPKX-72">
          <mxGeometry width="50" height="50" relative="1" as="geometry">
            <mxPoint x="2838.95" y="723.56" as="sourcePoint" />
            <mxPoint x="2792.998" y="778.6800000000003" as="targetPoint" />
            <Array as="points">
              <mxPoint x="2796" y="730" />
            </Array>
          </mxGeometry>
        </mxCell>
        <mxCell id="IAE02krrpLUfDQyFtPKX-86" value="No" style="text;html=1;align=center;verticalAlign=middle;resizable=0;points=[];autosize=1;strokeColor=none;fillColor=none;" vertex="1" parent="1">
          <mxGeometry x="2679" y="1289" width="33" height="26" as="geometry" />
        </mxCell>
        <mxCell id="IAE02krrpLUfDQyFtPKX-87" value="" style="endArrow=classic;html=1;rounded=0;exitX=0.484;exitY=0.981;exitDx=0;exitDy=0;exitPerimeter=0;" edge="1" parent="1" source="IAE02krrpLUfDQyFtPKX-29">
          <mxGeometry width="50" height="50" relative="1" as="geometry">
            <mxPoint x="3058" y="1005" as="sourcePoint" />
            <mxPoint x="1873" y="582" as="targetPoint" />
            <Array as="points">
              <mxPoint x="3136" y="886" />
              <mxPoint x="3243" y="885" />
              <mxPoint x="3287" y="589" />
            </Array>
          </mxGeometry>
        </mxCell>
        <mxCell id="IAE02krrpLUfDQyFtPKX-88" value="" style="endArrow=classic;html=1;rounded=0;exitX=1;exitY=0.5;exitDx=0;exitDy=0;entryX=0;entryY=0.5;entryDx=0;entryDy=0;" edge="1" parent="1" source="IAE02krrpLUfDQyFtPKX-9" target="IAE02krrpLUfDQyFtPKX-37">
          <mxGeometry width="50" height="50" relative="1" as="geometry">
            <mxPoint x="2220" y="811" as="sourcePoint" />
            <mxPoint x="1994" y="790" as="targetPoint" />
            <Array as="points">
              <mxPoint x="1996" y="649" />
              <mxPoint x="1994" y="807" />
            </Array>
          </mxGeometry>
        </mxCell>
        <mxCell id="IAE02krrpLUfDQyFtPKX-89" value="Вікно в браузері:&lt;br&gt;1. Кнопки&lt;div&gt;&lt;span style=&quot;white-space: pre;&quot;&gt;&#x9;&lt;/span&gt;1. ON/OFF GPS.&lt;/div&gt;&lt;div&gt;&lt;span style=&quot;white-space: pre;&quot;&gt;&#x9;&lt;/span&gt;2. ON/OFF LOG.&lt;/div&gt;&lt;div&gt;&lt;span style=&quot;white-space: pre;&quot;&gt;&#x9;&lt;/span&gt;3. ON/OFF RGB LEDs&lt;/div&gt;&lt;div&gt;&lt;span style=&quot;white-space: pre;&quot;&gt;&#x9;&lt;/span&gt;4. Перезагрузка всього дівайсу.&lt;/div&gt;&lt;div&gt;&lt;span style=&quot;white-space: pre;&quot;&gt;&#x9;&lt;/span&gt;5. Задати як часто логувати дані.(1 сек до 60 сек)&lt;br&gt;2. Вікна з інформацією:&lt;div&gt;&lt;span style=&quot;white-space: pre;&quot;&gt;&#x9;&lt;/span&gt;1.Зарад батереї В процентах&lt;br&gt;&lt;span style=&quot;white-space: pre;&quot;&gt;&#x9;&lt;/span&gt;2. Координати GPS&lt;/div&gt;&lt;div style=&quot;&quot;&gt;&lt;span style=&quot;white-space: pre;&quot;&gt;&#x9;&lt;/span&gt;3. Температура&lt;/div&gt;&lt;div style=&quot;&quot;&gt;&lt;span style=&quot;white-space: pre;&quot;&gt;&#x9;&lt;/span&gt;4. Скільки вільного місця на флешці&lt;br&gt;&lt;span style=&quot;white-space: pre;&quot;&gt;&#x9;&lt;/span&gt;5. Дані з Micro SD Card (Скачування видаляння)&lt;br&gt;&lt;/div&gt;&lt;div&gt;&lt;br&gt;&lt;/div&gt;&lt;/div&gt;" style="text;html=1;align=left;verticalAlign=middle;resizable=0;points=[];autosize=1;strokeColor=none;fillColor=none;" vertex="1" parent="1">
          <mxGeometry x="2294" y="1148" width="320" height="214" as="geometry" />
        </mxCell>
        <mxCell id="IAE02krrpLUfDQyFtPKX-90" value="Command: Запустити інтернет для SIM800L" style="rounded=1;whiteSpace=wrap;html=1;" vertex="1" parent="1">
          <mxGeometry x="1692" y="2230" width="128" height="54.12" as="geometry" />
        </mxCell>
        <mxCell id="IAE02krrpLUfDQyFtPKX-91" value="GSM MSM ansver" style="rounded=1;whiteSpace=wrap;html=1;" vertex="1" parent="1">
          <mxGeometry x="3074" y="908.9999999999999" width="128" height="54.12" as="geometry" />
        </mxCell>
        <mxCell id="IAE02krrpLUfDQyFtPKX-92" value="GSM MSM ansver" style="rounded=1;whiteSpace=wrap;html=1;" vertex="1" parent="1">
          <mxGeometry x="2905" y="1234.8799999999999" width="128" height="54.12" as="geometry" />
        </mxCell>
      </root>
    </mxGraphModel>
  </diagram>
</mxfile>
